# xmcd
#
# Track frame offsets: 
#        170
#        18778
#        38808
#        55100
#        68633
#        79873
#        99483
#        120025
#        134508
#        149788
#
# Disc length: 2211 seconds
#
# Revision: 1
# Processed by: cddbd v1.5PL3 Copyright (c) Steve Scherf et al.
# Submitted via: ExactAudioCopy v0.95a5
#
DISCID=7f08a10a
DTITLE=The Judds - River Of Time
DYEAR=1989
DGENRE=Country
TTITLE0=One Man Woman
TTITLE1=Young Love
TTITLE2=Not My Baby
TTITLE3=Let Me Tell You About Love
TTITLE4=Sleepless Nights
TTITLE5=Water Of Love
TTITLE6=River Of Time
TTITLE7=Cadillac Red
TTITLE8=Do I Dare
TTITLE9=Guardian Angel
EXTD=(c)1989 CURB/ BMG Ariola\nupc 0035627412721\n
EXTT0=
EXTT1=
EXTT2=
EXTT3=
EXTT4=
EXTT5=
EXTT6=
EXTT7=
EXTT8=
EXTT9=
PLAYORDER=
